<?xml version="1.0" encoding="UTF-8" standalone="no"?>
<svg
   width="73.328346mm"
   height="43.873821mm"
   viewBox="0 0 73.328347 43.873822"
   version="1.1"
   id="svg5"
   sodipodi:docname="favicon.svg"
   inkscape:version="1.3.1 (9b9bdc1480, 2023-11-25, custom)"
   xmlns:inkscape="http://www.inkscape.org/namespaces/inkscape"
   xmlns:sodipodi="http://sodipodi.sourceforge.net/DTD/sodipodi-0.dtd"
   xmlns="http://www.w3.org/2000/svg"
   xmlns:svg="http://www.w3.org/2000/svg">
  <defs
     id="defs1" />
  <sodipodi:namedview
     id="namedview1"
     pagecolor="#ffffff"
     bordercolor="#999999"
     borderopacity="1"
     inkscape:showpageshadow="2"
     inkscape:pageopacity="0"
     inkscape:pagecheckerboard="0"
     inkscape:deskcolor="#d1d1d1"
     inkscape:document-units="mm"
     inkscape:zoom="2.4010427"
     inkscape:cx="171.80036"
     inkscape:cy="85.379573"
     inkscape:window-width="1920"
     inkscape:window-height="1016"
     inkscape:window-x="0"
     inkscape:window-y="0"
     inkscape:window-maximized="1"
     inkscape:current-layer="g485" />
  <g
     inkscape:label="Capa 1"
     inkscape:groupmode="layer"
     id="layer1"
     transform="translate(-65.651336,-192.52181)"
     fill="currentColor">
    <path
       id="path304"
       d="" />
    <path
       id="path302"
       d="" />
    <g
       id="g485"
       fill="currentColor">
      <path
         id="path322"
         d="m 65.651853,192.52181 v 21.92528 l -5.17e-4,21.92476 5.587773,0.0186 1.55236,0.005 h 4.035929 v -2.02417 c 0,-1.26718 -0.0651,-2.03812 -0.172083,-2.03812 -0.283937,0 -4.28769,1.47835 -7.420218,2.73989 -1.614527,0.65021 -2.963884,1.15369 -2.998784,1.11879 -0.08972,-0.0897 5.302194,-2.58656 8.173145,-3.78478 l 2.408121,-1.00511 0.0052,-4.4452 0.0052,-4.44469 2.75177,5.1e-4 h 2.751253 l 1.509985,2.84893 1.509986,2.84892 2.808097,-0.8754 c 1.544427,-0.48156 3.89424,-1.17249 5.221387,-1.53582 1.327144,-0.36333 2.412772,-0.73143 2.412772,-0.81753 0,-0.0861 -0.53353,-1.13176 -1.185457,-2.32388 -0.651927,-1.19216 -1.185457,-2.19909 -1.185457,-2.23759 0,-0.0385 0.489051,-0.38813 1.086238,-0.77722 3.142271,-2.04727 5.435976,-5.60789 6.033217,-9.36532 0.2815,-1.77099 0.12414,-4.909 -0.33331,-6.64662 -1.396367,-5.30408 -5.211211,-9.0158 -10.847913,-10.55491 l -1.610754,-0.43977 -11.048938,-0.0574 z m 36.406567,0.0181 v 15.5515 15.55151 l 1.48156,-0.32195 c 1.40725,-0.30548 9.17073,-1.65571 9.51983,-1.65571 0.0964,0 0.18428,-0.92932 0.21188,-2.23449 l 0.0475,-2.235 1.32653,2.0655 c 1.13556,1.76773 1.37945,2.05276 1.69344,1.98076 0.6731,-0.15434 5.24,-0.57869 8.40982,-0.78135 1.72297,-0.11016 3.15935,-0.22196 3.19205,-0.24856 0.0327,-0.0266 -0.12647,-0.30098 -0.35398,-0.60978 -0.2275,-0.3088 -1.21805,-1.75143 -2.2009,-3.20549 l -1.78697,-2.64377 6.98045,-10.56421 6.97994,-10.56421 -6.35465,-0.0445 c -4.94429,-0.0345 -6.39944,0.003 -6.55567,0.1695 -0.11044,0.11756 -2.70501,4.21285 -5.76554,9.10074 l -5.56452,8.88731 -0.0439,-9.09918 -0.0439,-9.09867 h -5.58622 z m -25.230505,9.61595 3.852478,0.0786 c 2.901741,0.0591 4.061198,0.14573 4.698938,0.35088 2.569571,0.82657 3.875828,2.66608 3.850928,5.42241 -0.01967,2.17586 -1.331358,4.05445 -3.414262,4.88962 -0.867647,0.34787 -1.273224,0.38385 -4.966622,0.43615 l -4.02146,0.0568 v -5.61722 z m 53.763125,21.83587 -6.1712,0.10594 c -3.39432,0.0584 -6.22679,0.1639 -6.29419,0.2341 -0.0674,0.0702 0.99541,1.84297 2.36162,3.93981 1.36618,2.09681 3.11133,4.78303 3.87831,5.96914 l 1.39371,2.15491 h 13.22039 l -2.55902,-3.76566 c -1.40805,-2.07221 -3.29605,-4.86389 -4.19509,-6.20324 z m -17.35656,0.72141 -0.63511,0.002 c -0.82552,0.002 -4.32202,0.39154 -7.7866,0.86713 l -2.74919,0.37724 -0.045,5.09116 -0.045,5.09117 -2.517162,-4.61367 c -1.384617,-2.53742 -2.55281,-4.61368 -2.595707,-4.61368 -0.47148,0 -9.06814,1.98681 -10.319267,2.38487 l -0.531234,0.16898 1.100191,2.06758 c 0.60494,1.13717 1.438284,2.69606 1.852084,3.46438 l 0.751375,1.39527 h 23.52053 v -5.84047 z"
         style="fill:#ffffff"
         sodipodi:nodetypes="ccccccsssccccccccccsscscssccccccccscccsssscccccccccccccccccccccccsscccccccccccccscccccccc" />
      <g
         aria-label="PANEL"
         id="text401" />
    </g>
  </g>
</svg>
