<?xml version="1.0" encoding="UTF-8" standalone="no"?>
<svg
   width="91.955032mm"
   height="86.359505mm"
   viewBox="0 0 91.955033 86.359506"
   version="1.1"
   id="svg5"
   sodipodi:docname="rkpanel_soporte_linea.svg"
   inkscape:version="1.4.2 (2aeb623e1d, 2025-05-12)"
   xmlns:inkscape="http://www.inkscape.org/namespaces/inkscape"
   xmlns:sodipodi="http://sodipodi.sourceforge.net/DTD/sodipodi-0.dtd"
   xmlns="http://www.w3.org/2000/svg"
   xmlns:svg="http://www.w3.org/2000/svg">
  <defs
     id="defs1" />
  <sodipodi:namedview
     id="namedview1"
     pagecolor="#ffffff"
     bordercolor="#999999"
     borderopacity="1"
     inkscape:showpageshadow="2"
     inkscape:pageopacity="0"
     inkscape:pagecheckerboard="0"
     inkscape:deskcolor="#d1d1d1"
     inkscape:document-units="mm"
     inkscape:zoom="2.6991576"
     inkscape:cx="173.94316"
     inkscape:cy="163.19906"
     inkscape:window-width="1920"
     inkscape:window-height="1131"
     inkscape:window-x="0"
     inkscape:window-y="0"
     inkscape:window-maximized="1"
     inkscape:current-layer="svg5" />
  <g
     id="layer1"
     transform="translate(-66.460041,-169.86633)"
     style="fill:#ffffff">
    <path
       id="path304"
       d=""
       style="fill:#ffffff" />
    <path
       id="path302"
       d=""
       style="fill:#ffffff" />
    <g
       id="g485"
       style="fill:#ffffff">
      <path
         d="m 116.13281,172.63672 c -2.31026,0.002 -4.59987,0.10441 -6.08984,0.33789 -6.91613,1.08373 -13.280115,3.76527 -18.892579,7.95898 -2.944588,2.20025 -6.72295,6.10363 -8.796875,9.08985 -0.118504,0.17064 -0.203165,0.28636 -0.289063,0.43945 -0.01779,0.0215 -0.03226,0.0287 -0.04492,0.0508 -0.08885,0.15506 -0.09173,0.25123 -0.105469,0.40039 -0.0085,0.0933 -0.0016,0.10739 0,0.14063 7.78e-4,0.0166 0.0013,0.0319 0.002,0.043 3.44e-4,0.006 0.0017,0.01 0.002,0.0137 1.29e-4,0.002 -1.42e-4,0.004 0,0.006 l 0.002,0.0312 c 6.2e-5,4.6e-4 0.132632,0.38445 0.132812,0.38476 a 0.50005,0.50005 0 0 0 0,0.002 c 1.82e-4,3.1e-4 0.411808,0.39241 0.41211,0.39257 2.99e-4,1.6e-4 0.464128,0.11517 0.472656,0.11719 0.01546,-0.002 0.323686,-0.0467 0.324219,-0.0469 0.01111,-0.004 0.01654,-0.005 0.02539,-0.008 0.02244,-0.008 0.03377,-0.0107 0.0918,-0.0371 v 0.002 c 0.08272,-0.0375 0.158671,-0.0921 0.152344,-0.0879 0.173067,-0.11596 0.268344,-0.23675 0.273437,-0.24219 0.247195,-0.26422 0.715713,-0.81506 1.628907,-1.88477 5.419251,-6.34803 13.17848,-10.88004 21.572266,-12.58789 8.1654,-1.66138 17.43776,-0.33529 24.90039,3.56836 8.84623,4.62739 15.71234,13.01777 18.43359,22.51172 0.72187,2.51845 1.35072,4.10845 1.625,6.45313 1.18896,10.16409 -5.60855,22.68337 -9.22656,28.51562 l -1.07031,1.72461 h 0.22265 a 0.50005,0.50005 0 0 0 -0.5,0.5 v 12.32031 a 0.50005,0.50005 0 0 0 0.5,0.5 h 9.98829 a 0.50005,0.50005 0 0 0 0.5,-0.5 v -2.79101 a 0.50005,0.50005 0 0 0 -0.5,-0.5 h -5.81836 v -1.42774 h 5.19531 a 0.50005,0.50005 0 0 0 0.5,-0.5 v -2.51172 a 0.50005,0.50005 0 0 0 -0.5,-0.5 h -5.19531 v -0.95898 h 5.64062 a 0.50005,0.50005 0 0 0 0.5,-0.5 v -2.63086 a 0.50005,0.50005 0 0 0 -0.5,-0.5 h -0.78906 c 2.16083,-3.14208 3.92968,-6.43997 5.17969,-9.93359 0.94802,-2.64966 1.63165,-5.39872 2.05273,-8.24024 0.45263,-3.05438 0.55,-8.63959 0.18555,-11.45898 -1.4804,-11.45231 -7.09975,-21.61888 -15.81641,-28.56445 -5.794,-4.61675 -12.66947,-7.58031 -20.29883,-8.76563 -1.48493,-0.23068 -3.77117,-0.32861 -6.08203,-0.32617 z m 0,1 c 2.28083,-0.002 4.55897,0.10151 5.92969,0.31445 7.46961,1.1605 14.17028,4.05385 19.82617,8.56055 8.50869,6.77986 14.00041,16.70221 15.44922,27.91015 0.33905,2.62289 0.24723,8.2895 -0.18164,11.1836 -0.41178,2.7788 -1.08036,5.46214 -2.00586,8.04883 -1.3202,3.68983 -3.17592,7.18123 -5.54297,10.48047 a 0.50005,0.50005 0 0 0 0.40625,0.79101 h 1.1875 v 1.63086 h -5.64062 a 0.50005,0.50005 0 0 0 -0.5,0.5 v 1.95898 a 0.50005,0.50005 0 0 0 0.5,0.5 h 5.19531 v 1.51172 h -5.19531 a 0.50005,0.50005 0 0 0 -0.5,0.5 v 2.42774 a 0.50005,0.50005 0 0 0 0.5,0.5 h 5.81836 v 1.79101 h -8.98829 V 240.6582 l 1.19727,-1.92968 c 3.65713,-5.89531 10.62124,-18.47104 9.37109,-29.15821 -0.28866,-2.4676 -0.94832,-4.13665 -1.6582,-6.61328 -2.80085,-9.77167 -9.83445,-18.36243 -18.93164,-23.12109 -7.68075,-4.01775 -17.1513,-5.37351 -25.5625,-3.66211 -8.614022,1.75265 -16.562234,6.38843 -22.134765,12.91601 -0.913443,1.07 -1.398101,1.63827 -1.597656,1.85157 -0.106593,0.11393 0.01656,0.0179 -0.09961,0.0957 -0.04249,0.0284 -0.01,0.006 -0.0098,0.006 a 0.50005,0.50005 0 0 0 0,0.002 c 0.0374,-0.017 0.0094,-0.005 -0.0039,0 -0.01335,0.005 -0.0036,0.002 -0.0039,0.002 a 0.50005,0.50005 0 0 0 -0.0039,0 0.50005,0.50005 0 0 0 -0.01172,0 c -4.24e-4,0 -0.0075,-0.004 -0.0078,-0.004 -3.02e-4,-1.6e-4 -0.0174,-0.0134 -0.01758,-0.0137 -8.77e-4,-0.003 -0.0031,-0.009 -0.0039,-0.0117 -1.24e-4,-4.3e-4 8e-6,-0.002 0,-0.002 a 0.50005,0.50005 0 0 0 0,-0.006 c -9.21e-4,-0.0197 0.0038,-0.0665 -0.002,-0.004 a 0.50005,0.50005 0 0 0 -0.0039,-0.0176 c 8.15e-4,0.006 6.88e-4,0.009 0.002,0.0176 0.01031,-0.0746 0.03448,-0.0938 -0.02148,0.004 0.009,-0.0109 0.01107,-0.009 0.01953,-0.0215 0.0093,-0.0132 0.01356,-0.009 0.02148,-0.0234 0.05046,-0.0922 0.114268,-0.18127 0.246094,-0.37109 1.980159,-2.8512 5.758229,-6.75522 8.574219,-8.85938 5.486015,-4.09922 11.689403,-6.71225 18.449223,-7.77148 1.37677,-0.21574 3.65539,-0.32418 5.93554,-0.32617 z m -48.767576,19.05664 c -0.567106,-0.002 -1.039701,0.46765 -1.039062,1.03516 v 21.92578 21.92382 c 4.21e-4,0.56352 0.467608,1.03268 1.03125,1.03516 l 5.58789,0.0176 5.587891,0.0195 a 0.50005,0.50005 0 0 0 0.002,0 c 0.56596,6.3e-4 1.0358,-0.47055 1.035156,-1.03711 v -2.03516 c 0,-0.65058 -0.01481,-1.17902 -0.04883,-1.58203 -0.01678,-0.1987 -0.03594,-0.37369 -0.07617,-0.54882 -0.01568,-0.0682 -0.04945,-0.20336 -0.121093,-0.34375 -2e-6,-1e-5 -0.0056,-0.006 -0.0059,-0.006 0.103254,-0.0942 0.241708,-0.20223 0.242188,-0.48829 l 0.0059,-4.44531 0.0039,-3.41015 h 1.71875 2.128907 l 1.21875,2.29882 1.509765,2.84766 a 0.50005,0.50005 0 0 0 0,0.002 c 0.136095,0.25632 0.450764,0.22028 0.716797,0.29493 -0.16576,0.29634 -0.227848,0.64067 -0.05664,0.96289 l 1.099609,2.06836 c 0.605861,1.1389 1.439652,2.69665 1.855469,3.46875 l 0.751953,1.39648 c 0.179857,0.33422 0.529757,0.5449 0.910156,0.54492 h 11.759762 11.75977 c 0.56655,6.5e-4 1.03581,-0.47113 1.03516,-1.03711 v -5.84179 -5.83985 c 6.5e-4,-0.56752 -0.4711,-1.03983 -1.03907,-1.03711 a 0.50005,0.50005 0 0 0 -0.004,0.002 l -0.63086,0.002 c -0.562,0.001 -1.595,0.10371 -3.01367,0.26172 -1.4213,0.1583 -3.16922,0.37625 -4.91016,0.61523 l -2.75,0.37695 c -0.50506,0.0702 -0.8887,0.50793 -0.89258,1.01758 l -0.0449,5.08789 -0.01,1.10938 -0.60937,-1.11719 c -0.69417,-1.27212 -1.33496,-2.4277 -1.80859,-3.26953 -0.23667,-0.42064 -0.431047,-0.76328 -0.574224,-1.00781 -0.07135,-0.12194 -0.128509,-0.21652 -0.177734,-0.29492 -0.02191,-0.035 -0.04563,-0.0754 -0.07813,-0.1211 -0.01541,-0.0217 -0.04576,-0.0603 -0.08008,-0.0996 0.0051,0.006 -0.0582,-0.0675 -0.123047,-0.12109 C 99.102719,227.21693 99.1254,227.2503 99.125,227.25 a 0.50005,0.50005 0 0 0 -0.05469,-0.0352 c 0,0 -0.05389,-0.0262 -0.05664,-0.0273 -0.0027,-0.001 -0.0053,-0.004 -0.0098,-0.006 -0.0088,-0.004 -0.02155,-0.007 -0.0332,-0.0117 -0.01165,-0.005 -0.02265,-0.01 -0.03125,-0.0137 -0.0043,-0.002 -0.0075,-0.003 -0.0098,-0.004 -0.0022,-9.4e-4 -0.0059,-0.004 -0.0059,-0.004 a 0.50005,0.50005 0 0 0 -0.02734,-0.01 c -2e-4,-7e-5 -0.326012,-0.0527 -0.326172,-0.0527 -0.157918,0 -0.266602,0.0218 -0.347656,0.0352 -0.105776,0.0174 -0.23087,0.0399 -0.376953,0.0684 0.04438,-0.0212 0.08396,-0.0377 0.132813,-0.0664 0.02786,-0.0164 0.12139,-0.0728 0.207031,-0.15039 -0.02331,0.0212 0.105797,-0.0722 0.199219,-0.2168 0.09342,-0.14455 0.152343,-0.34764 0.152343,-0.56836 0,-0.0954 -0.0063,-0.1767 -0.02734,-0.25977 -0.02106,-0.0831 -0.04456,-0.1359 -0.02734,-0.082 -0.01531,-0.0479 -0.03229,-0.0899 -0.04492,-0.12109 v -0.002 c -0.03037,-0.0748 -0.06086,-0.13895 -0.0918,-0.20508 -0.0681,-0.14562 -0.15837,-0.32899 -0.269531,-0.54688 -0.221495,-0.43418 -0.52163,-1.00018 -0.851563,-1.60351 -0.301135,-0.55067 -0.564123,-1.03956 -0.771484,-1.42969 0.111927,-0.0761 0.200928,-0.13851 0.330078,-0.22266 2.836527,-1.84805 4.931187,-4.80017 5.949217,-8.07422 v 11.20899 c 9.7e-4,0.64859 0.62229,1.14791 1.25586,1.00976 l 1.48047,-0.32031 c 0.62562,-0.13581 2.95985,-0.56068 5.11523,-0.93554 1.07776,-0.18746 2.12203,-0.36554 2.91602,-0.4961 0.39687,-0.0653 0.73028,-0.11798 0.9707,-0.1543 0.11646,-0.0175 0.21233,-0.0301 0.28125,-0.0391 0.0165,-0.002 0.0361,-0.004 0.0547,-0.006 0.009,-9.2e-4 0.0176,-0.003 0.0273,-0.004 0.005,-5.2e-4 0.0115,-9.4e-4 0.0195,-0.002 0.008,-0.001 0.0598,-0.01 0.0605,-0.01 a 0.50005,0.50005 0 0 0 0.0762,-0.0899 c 0.24537,-0.0749 0.50007,-0.16935 0.5918,-0.27929 0.0972,-0.11655 0.15915,-0.25242 0.17774,-0.29688 0.0518,-0.12419 0.0783,-0.23601 0.0937,-0.31054 0.0359,-0.17373 0.0577,-0.35786 0.0781,-0.57422 0.0154,-0.1621 0.0195,-0.42679 0.0312,-0.625 0.2626,0.39446 0.56267,0.87071 0.76172,1.10351 0.15772,0.18446 0.34493,0.37768 0.60937,0.51563 0.32662,0.17035 0.64139,0.18915 0.94727,0.11914 -0.0146,0.003 0.13847,-0.025 0.32422,-0.0508 0.18575,-0.0258 0.43163,-0.0564 0.71094,-0.0879 0.56174,-0.0634 1.29145,-0.13603 2.09765,-0.21094 1.61217,-0.14979 3.54047,-0.30582 5.11133,-0.40625 0.8654,-0.0553 1.65841,-0.11065 2.24414,-0.15625 0.29391,-0.0229 0.53472,-0.0457 0.70899,-0.0625 0.0847,-0.008 0.15687,-0.0124 0.22851,-0.0215 a 0.50005,0.50005 0 0 0 0.008,-0.002 c 0.014,-0.002 0.0514,-0.004 0.10743,-0.0156 0.009,-0.002 0.0478,-0.0102 0.0898,-0.0215 a 0.50005,0.50005 0 0 0 0.01,-0.002 c -0.0235,0.007 0.0336,-0.008 0.0879,-0.0273 l 0.006,-0.002 c 0.0704,-0.0262 0.0923,-0.044 0.10547,-0.0508 v 0.002 c 0.0695,-0.0355 0.0749,-0.0446 0.0996,-0.0605 0.0248,-0.016 0.0448,-0.0292 0.0449,-0.0293 a 0.50005,0.50005 0 0 0 0.0371,-0.0273 c 5.1e-4,-4.1e-4 0.15976,-0.16357 0.16016,-0.16407 a 0.50005,0.50005 0 0 0 0.002,-0.002 c 2.1e-4,-2.6e-4 0.0319,-0.0429 0.0488,-0.0684 0.017,-0.0255 0.0319,-0.0461 0.0645,-0.11133 0.0558,-0.11217 0.0843,-0.21826 0.0977,-0.30078 0.0242,-0.149 0.007,-0.29661 0.002,-0.33398 a 0.50005,0.50005 0 0 0 -0.002,-0.006 c -0.0191,-0.12146 -0.0594,-0.23301 -0.0742,-0.26953 v -0.002 c -0.0438,-0.10778 -0.0934,-0.19456 -0.13476,-0.26562 -0.0921,-0.15878 -0.20704,-0.3263 -0.33789,-0.50391 -0.16041,-0.21772 -1.19588,-1.72216 -2.17578,-3.17187 l -1.4004,-2.07032 6.59961,-9.98828 6.98047,-10.56445 a 0.50005,0.50005 0 0 0 0,-0.002 c 0.43479,-0.66147 -0.062,-1.59374 -0.85351,-1.60157 a 0.50005,0.50005 0 0 0 -0.002,0 l -6.35547,-0.0449 c -2.47545,-0.0173 -4.07803,-0.0173 -5.10742,0.01 -0.51473,0.0133 -0.88503,0.0319 -1.17578,0.0644 -0.14106,0.0158 -0.27682,0.0347 -0.41992,0.0723 -0.0536,0.0141 -0.38139,0.10249 -0.61328,0.34961 -0.11121,0.11837 -0.17063,0.22383 -0.14844,0.1914 -0.0264,0.0386 -0.0662,0.0974 -0.11523,0.17188 -0.092,0.1396 -0.21506,0.32873 -0.36914,0.56836 -0.30885,0.48034 -0.74043,1.15846 -1.26368,1.98437 -1.04645,1.65179 -2.46111,3.89852 -3.99218,6.34375 l -3.66992,5.86328 -0.0273,-5.53125 -0.0449,-9.09765 c -0.001,-0.56362 -0.46764,-1.02983 -1.03125,-1.03125 a 0.50005,0.50005 0 0 0 -0.002,0 h -5.58789 l -5.58594,0.002 c -0.56504,-6.5e-4 -1.03372,0.46611 -1.03516,1.03125 a 0.50005,0.50005 0 0 0 0,0.002 v 10.36719 c -1.59277,-5.38251 -5.630293,-9.2558 -11.38867,-10.82812 l -1.609375,-0.43946 h -0.002 c -0.08942,-0.0246 -0.180094,-0.0364 -0.267578,-0.0371 a 0.50005,0.50005 0 0 0 -0.002,0 l -11.048829,-0.0566 z m -0.0039,1 11.048828,0.0586 11.046875,0.0566 c 0.0057,5e-5 0.0095,-7e-5 0.0098,0 a 0.50005,0.50005 0 0 0 0.002,0.002 l 1.611328,0.43945 c 5.644232,1.54116 9.474392,5.26534 10.873052,10.57812 0.46184,1.75433 0.61628,4.87182 0.33203,6.66016 -0.5991,3.76906 -2.894356,7.33474 -6.046879,9.38867 -0.283384,0.18464 -0.533776,0.35667 -0.724609,0.49219 a 0.50005,0.50005 0 0 0 -0.154297,0.63867 c 0.04627,0.089 0.08562,0.16684 0.150391,0.28906 0.214771,0.40538 0.510032,0.95286 0.835937,1.54883 0.326227,0.59655 0.624919,1.15878 0.839844,1.58008 0.107058,0.20985 0.192409,0.38413 0.253906,0.51563 0.03362,0.0719 0.05888,0.12515 0.07227,0.1582 0.0093,0.0229 0.01191,0.0311 0.01758,0.0488 a 0.50005,0.50005 0 0 0 0,0.002 c 0.02782,0.087 0.01993,0.0558 0.01172,0.0234 -0.0082,-0.0324 -0.0039,-0.0343 -0.0039,0.0137 0,0.0655 -0.0054,0.0458 0.0078,0.0254 0.0132,-0.0204 0.04636,-0.0509 -0.03125,0.0195 -0.02295,0.0208 -0.002,0.005 -0.04297,0.0293 -0.04224,0.0249 -0.07651,0.0412 -0.144531,0.0703 -0.126994,0.0542 -0.302707,0.11925 -0.521485,0.19336 -0.438109,0.14848 -1.040611,0.33176 -1.705078,0.51367 -1.32664,0.3632 -3.676882,1.05379 -5.220703,1.53516 l -2.808594,0.875 c -0.01864,0.006 -0.03174,0.002 -0.04102,-0.0156 l -1.509766,-2.84961 -1.359375,-2.56445 a 0.50005,0.50005 0 0 0 -0.441406,-0.26562 h -2.429688 -2.21875 a 0.50005,0.50005 0 0 0 -0.5,0.49804 l -0.0039,3.91016 -0.0059,4.28906 c -0.02993,0.0224 -0.05395,0.0438 -0.09766,0.0703 -0.136227,0.0825 -0.283204,0.14844 -0.283204,0.14844 a 0.50005,0.50005 0 0 0 -0.01758,0.008 c -3.125519,1.54924 -4.584846,2.39108 -5.294922,2.875 -0.355037,0.24197 -0.521103,0.37728 -0.65039,0.55664 -0.06464,0.0897 -0.142018,0.21498 -0.126953,0.40821 0.01506,0.19322 0.16609,0.34589 0.167968,0.34765 a 0.50005,0.50005 0 0 0 0.002,0 c 2.88e-4,2.8e-4 0.173353,0.10726 0.173828,0.10743 4.74e-4,1.7e-4 0.08868,0.0223 0.11914,0.0254 0.06091,0.006 0.09494,0.003 0.121094,0 0.05231,-0.007 0.07415,-0.015 0.0957,-0.0215 0.04311,-0.013 0.07106,-0.0257 0.103516,-0.0391 0.06491,-0.0266 0.138468,-0.0601 0.230469,-0.10352 0.184001,-0.0868 0.433496,-0.20965 0.730468,-0.35937 0.593945,-0.29944 1.375191,-0.70181 2.154297,-1.10547 0.779106,-0.40366 1.556528,-0.808 2.138672,-1.10742 0.164433,-0.0846 0.26782,-0.13583 0.396484,-0.20117 7.29e-4,0.008 0.0012,0.011 0.002,0.0195 0.0298,0.35297 0.04492,0.86315 0.04492,1.49804 v 2.03711 c 2.8e-5,0.0242 -0.0093,0.0347 -0.0332,0.0352 l -5.58789,-0.0195 -5.587891,-0.0176 c -0.02472,-6e-5 -0.03518,-0.0103 -0.03516,-0.0352 V 215.6543 193.72852 a 0.50005,0.50005 0 0 0 0,-0.002 c -2.9e-5,-0.0254 0.0093,-0.0333 0.03516,-0.0332 z m 41.992192,0.0176 h 5.58789 c 0.0247,6e-5 0.0331,0.0104 0.0332,0.0352 l 0.0449,9.09766 0.0352,7.25781 a 0.50005,0.50005 0 0 0 0.92383,0.26367 l 4.58593,-7.32617 c 1.53031,-2.444 2.9452,-4.69029 3.99024,-6.33984 0.52251,-0.82477 0.95307,-1.50151 1.25976,-1.97852 0.1537,-0.23903 0.27429,-0.42645 0.36133,-0.55859 0.0404,-0.0613 0.0756,-0.11176 0.10742,-0.1582 0.0804,-0.11745 -0.0244,0.008 0.0508,-0.0723 0.0836,-0.0891 -0.0202,-0.0247 0.13868,-0.0664 0.0693,-0.0182 0.15294,-0.0309 0.27734,-0.0449 0.2402,-0.0269 0.58879,-0.0457 1.08984,-0.0586 1.00218,-0.0263 2.60391,-0.0271 5.07618,-0.01 l 6.35351,0.0449 c 0.0545,5.4e-4 0.0592,0.007 0.0293,0.0527 l -6.98047,10.56445 -6.7832,10.26758 a 0.50005,0.50005 0 0 0 0.002,0.55469 l 1.58789,2.34765 c 0.98288,1.45412 1.96874,2.89225 2.19922,3.20508 0.11572,0.15708 0.21206,0.29957 0.27734,0.41211 0.0373,0.0642 0.054,0.0955 0.0723,0.14063 0.0153,0.0376 0.01,0.0172 0.0137,0.0449 0.007,0.0448 0.006,0.002 0.002,0.0273 -7.9e-4,0.005 -0.002,0.01 -0.006,0.0176 0.0105,-0.0211 0.002,-0.005 -0.002,0.002 0,0 0,0.002 0,0.002 -8.1e-4,0.001 -0.003,0.002 -0.004,0.004 -0.0174,0.0113 -0.0581,0.0335 -0.0117,0.01 -0.015,0.007 -0.0334,0.0141 0.006,0 a 0.50005,0.50005 0 0 0 -0.01,0.004 c 0.006,-0.002 0.0343,-0.0117 -0.0195,0.004 -0.003,8.5e-4 -0.004,0.001 -0.0176,0.004 -0.003,6.4e-4 -0.0107,-1.5e-4 -0.0527,0.006 -0.0408,0.005 -0.1017,0.0117 -0.18555,0.0195 a 0.50005,0.50005 0 0 0 -0.002,0 c -0.16972,0.0164 -0.4039,0.0381 -0.69141,0.0605 -0.57871,0.0451 -1.37075,0.0992 -2.23242,0.1543 -1.58416,0.10129 -3.51662,0.2575 -5.13867,0.4082 -0.8109,0.0753 -1.54522,0.14832 -2.11719,0.2129 -0.28756,0.0325 -0.54083,0.0647 -0.73633,0.0918 -0.1955,0.0271 -0.30552,0.042 -0.41211,0.0664 -0.0303,0.007 -0.21558,-0.008 -0.25976,-0.0312 -0.10638,-0.0555 -0.18368,-0.12864 -0.3125,-0.2793 -0.24919,-0.29143 -0.58954,-0.8003 -1.15821,-1.68555 l -0.3789,-0.58984 a 0.50005,0.50005 0 0 0 -0.92188,0.25977 l -0.01,0.48242 c -0.0138,0.65349 -0.0425,1.21231 -0.0801,1.60937 -0.019,0.2005 -0.0391,0.35352 -0.0625,0.4668 -0.0143,0.069 -0.0148,0.0801 -0.0352,0.12891 -0.0176,0.0421 0.003,0.009 -0.0234,0.041 0.002,-0.003 -0.0189,0.0234 -0.0449,0.0234 a 0.50005,0.50005 0 0 0 -0.10156,0.10352 l 0.006,-0.0899 c -6.9e-4,1.7e-4 0.0439,-0.009 0.0508,-0.01 -0.004,3.9e-4 -0.008,0.001 -0.0156,0.002 -0.0201,0.002 -0.0483,0.006 -0.0801,0.01 a 0.50005,0.50005 0 0 0 -0.004,0 c -0.0715,0.009 -0.17568,0.0238 -0.30273,0.043 -0.24818,0.0375 -0.58497,0.0905 -0.98438,0.15625 -0.79855,0.13131 -1.84552,0.30821 -2.92578,0.4961 -2.16065,0.37578 -4.45184,0.79087 -5.1543,0.94336 l -1.48242,0.32031 a 0.50005,0.50005 0 0 0 0,0.002 c -0.0324,0.007 -0.0429,-0.002 -0.043,-0.0352 v -15.54883 -15.55274 c 6e-5,-0.0247 0.0103,-0.0332 0.0352,-0.0332 z m -30.271489,9.69726 a 0.50005,0.50005 0 0 0 -0.509765,0.5 v 5.07227 5.07422 a 0.50005,0.50005 0 0 0 0.507812,0.5 l 3.478516,-0.0488 c 1.846855,-0.0261 2.868744,-0.0485 3.539062,-0.10742 0.662778,-0.0582 0.989528,-0.15792 1.414063,-0.32813 2.191621,-0.87876 3.435707,-2.99766 3.453125,-5.11914 0.01742,-2.12147 -1.242806,-4.2771 -3.884766,-5.12695 -0.651958,-0.20973 -1.787847,-0.29052 -4.691406,-0.34961 z m 0.490235,1.00977 2.796875,0.0566 c 2.88446,0.0587 4.056825,0.189 4.404296,0.30078 2.273624,0.73137 3.205667,2.43104 3.191407,4.16797 -0.01426,1.73693 -1.027958,3.47898 -2.824219,4.19922 -0.401529,0.16099 -0.519964,0.20625 -1.128906,0.25976 -0.601402,0.0529 -1.623166,0.0774 -3.466797,0.10352 l -2.972656,0.041 v -4.5664 z M 114.61523,223.75 a 0.50005,0.50005 0 0 0 0.1543,0.15625 c -0.003,-7e-5 -0.003,-0.002 -0.01,-0.002 -0.006,-4e-4 -0.0316,-0.002 -0.0312,-0.002 1.5e-4,2e-5 -0.0372,-0.006 -0.0371,-0.006 1.1e-4,3e-5 -0.0841,-0.0274 -0.084,-0.0273 z m 17.66797,0.41406 -6.17187,0.10547 c -1.70296,0.0293 -3.26307,0.0704 -4.41406,0.11328 -0.57577,0.0214 -1.04875,0.0428 -1.39258,0.0645 -0.16963,0.0107 -0.30844,0.0203 -0.42969,0.0332 a 0.50005,0.50005 0 0 0 -0.004,0 c -0.0601,0.007 -0.114,0.0156 -0.16796,0.0254 -0.008,0.001 -0.0809,0.013 -0.1543,0.0352 -5.2e-4,1.5e-4 -0.001,-1.6e-4 -0.002,0 -0.003,8.7e-4 -0.003,0.001 -0.006,0.002 -0.0397,0.0124 -0.0844,0.0305 -0.12891,0.0508 -0.0227,0.0101 -0.0779,0.0352 -0.13281,0.0703 -0.0803,0.0515 -0.0869,0.0654 -0.11328,0.0879 -0.0264,0.0225 -0.0701,0.0623 -0.0703,0.0625 a 0.50005,0.50005 0 0 0 -0.01,0.01 c -2.6e-4,2.7e-4 -0.0437,0.0513 -0.0703,0.0859 -0.0266,0.0346 -0.0521,0.0584 -0.10157,0.15429 -0.049,0.0951 -0.07,0.17826 -0.0801,0.2168 -0.028,0.10714 -0.038,0.21259 -0.0371,0.28125 0.002,0.11765 0.0274,0.23321 0.0352,0.26367 0.0255,0.10047 0.0617,0.18199 0.0781,0.2207 0.0464,0.10912 0.0978,0.21155 0.16015,0.32813 0.12611,0.23617 0.30048,0.53888 0.51953,0.9043 0.43802,0.7307 1.05134,1.7044 1.74024,2.76172 1.36559,2.09589 3.11183,4.78553 3.87695,5.96875 l 1.39453,2.15625 c 0.18981,0.29334 0.51741,0.47165 0.86719,0.47265 h 6.61133 a 0.50005,0.50005 0 0 0 0.16015,-0.0273 c 0.002,-6.1e-4 0.20372,-0.0335 0.46485,-0.0332 0.26113,2.6e-4 0.59989,0.0168 0.97851,0.041 0.75724,0.0484 1.68016,0.12777 2.56055,0.16016 0.88039,0.0324 1.70731,0.0292 2.35938,-0.13477 0.32603,-0.082 0.62969,-0.19916 0.85937,-0.47266 0.22968,-0.27349 0.27043,-0.71149 0.13477,-1.05468 a 0.50005,0.50005 0 0 0 -0.0508,-0.0957 l -2.56054,-3.76757 c -1.40695,-2.0706 -3.29523,-4.86218 -4.19141,-6.19727 l -1.63476,-2.43555 c -0.19559,-0.29105 -0.52689,-0.4632 -0.87696,-0.45703 z m 0.0156,1 a 0.50005,0.50005 0 0 0 0.002,0 c 0.0127,-2.2e-4 0.0225,0.004 0.0293,0.0137 l 1.63476,2.43555 c 0.89902,1.33931 2.7854,4.12909 4.19336,6.20117 l 2.52735,3.71875 c -0.0117,0.0106 -0.11219,0.0868 -0.32618,0.14063 -0.44279,0.11131 -1.23409,0.13659 -2.08007,0.10547 -0.84598,-0.0311 -1.75892,-0.10868 -2.53321,-0.15821 -0.38714,-0.0248 -0.73807,-0.0427 -1.03906,-0.043 -0.30098,-2.9e-4 -0.53373,6.1e-4 -0.78711,0.0859 l 0.16016,-0.0254 h -6.60938 -0.002 c -0.0111,-5.7e-4 -0.0211,-0.008 -0.0273,-0.0176 l -1.39453,-2.15429 c -0.76699,-1.1861 -2.51276,-3.87396 -3.87891,-5.97071 -0.68332,-1.04874 -1.29035,-2.0158 -1.71875,-2.73047 -0.21417,-0.35726 -0.38366,-0.65077 -0.49609,-0.86132 -0.0567,-0.10609 -0.0957,-0.184 -0.12305,-0.24805 v -0.002 c -0.019,-0.0447 -0.0214,-0.0451 -0.0293,-0.0762 -0.009,-0.0356 -0.003,0.001 -0.004,-0.0293 -8e-5,-0.006 -0.002,0.0106 0.004,-0.0137 a 0.50005,0.50005 0 0 0 0,-0.002 c 0.007,-0.0272 0.009,-0.0226 0.002,-0.01 -0.0282,0.0548 -0.008,0.0143 0.006,-0.004 0.007,-0.009 0.003,-0.004 0.002,-0.004 0.002,-0.001 -0.001,0.002 0.004,-0.002 0.0166,-0.0142 0.0593,-0.0421 0.006,-0.008 a 0.50005,0.50005 0 0 0 0.006,-0.002 c 0.022,-0.0102 0.0157,-0.007 0.0117,-0.006 a 0.50005,0.50005 0 0 0 0.008,-0.002 c 0.002,-5.2e-4 -0.0228,0.003 0.0176,-0.004 a 0.50005,0.50005 0 0 0 0.01,-0.002 c 0.0394,-0.007 0.0681,-0.0111 0.10742,-0.0156 0.0891,-0.009 0.21987,-0.0188 0.38672,-0.0293 0.32913,-0.0207 0.79683,-0.0433 1.36719,-0.0644 1.14122,-0.0425 2.69719,-0.0821 4.39453,-0.11133 z m -17.35547,0.72071 c 6.7e-4,1e-5 0.001,-3e-5 0.002,0 0.022,9.1e-4 0.0332,0.009 0.0332,0.0332 a 0.50005,0.50005 0 0 0 0,0.002 v 5.83985 5.84375 c 2e-5,0.0254 -0.008,0.0352 -0.0332,0.0351 a 0.50005,0.50005 0 0 0 -0.002,0 H 103.18359 91.423828 c -0.01299,0 -0.02273,-0.007 -0.0293,-0.0195 l -0.751953,-1.39648 c -0.413897,-0.76853 -1.248564,-2.32765 -1.853516,-3.46485 l -1.099609,-2.06836 c -0.01485,-0.028 -0.01058,-0.0392 0.01953,-0.0488 l 0.53125,-0.16992 v 0.002 c 0.642033,-0.20427 3.089543,-0.79706 5.455078,-1.34375 1.181907,-0.27316 2.339749,-0.53194 3.232422,-0.72461 0.447588,-0.0966 0.826747,-0.17771 1.107422,-0.23243 0.141782,-0.0277 0.259917,-0.0497 0.34961,-0.0645 0.114906,-0.0189 0.09682,-0.0215 0.185546,-0.0215 0.0049,0.002 0.0086,0.004 0.01367,0.006 0.0042,0.002 0.0076,0.002 0.01172,0.004 8.52e-4,3.6e-4 0.0011,0.002 0.002,0.002 -0.0029,-0.004 -0.006,-0.006 0.0039,0.006 0.01648,0.0189 0.01038,0.0114 0.01758,0.0215 0.0127,0.0179 0.02439,0.0364 0.04687,0.0723 0.03964,0.0631 0.09346,0.15221 0.162109,0.26953 0.137003,0.23398 0.330872,0.57356 0.566406,0.99218 0.470751,0.83671 1.108509,1.98918 1.800779,3.25782 l 1.53125,2.80664 a 0.50005,0.50005 0 0 0 0.93946,-0.23438 l 0.0273,-3.0332 0.0449,-5.08984 c 1.6e-4,-0.0208 0.009,-0.0323 0.0293,-0.0352 l 2.75,-0.37695 c 1.7327,-0.23786 3.47218,-0.45422 4.88281,-0.61133 1.41232,-0.1573 2.47993,-0.255 2.9082,-0.25586 z m 25.72461,11.60156 c 0.0458,0.11595 0.0342,0.0371 0.0293,0.043 -9e-5,1e-4 -0.006,0.002 -0.006,0.002 z m -68.320314,2.23047 c -1.277547,0 -2.314734,0.16291 -3.125,0.5332 -0.776634,0.352 -1.394862,0.86023 -1.80664,1.51562 -0.39492,0.63191 -0.601563,1.3312 -0.601563,2.05665 0,1.08298 0.414431,2.04021 1.199219,2.74804 0.791062,0.71855 2.00555,1.22579 3.654297,1.61133 a 0.50005,0.50005 0 0 0 0.002,0.002 c 0.950378,0.21725 1.542174,0.49599 1.644531,0.5918 0.192423,0.18012 0.246094,0.31353 0.246094,0.49219 0,0.19386 -0.05967,0.3329 -0.263672,0.51758 -0.16541,0.14888 -0.427125,0.25 -0.869141,0.25 -0.580532,0 -0.927936,-0.16861 -1.214843,-0.54688 v -0.002 c -0.155321,-0.2072 -0.296768,-0.57336 -0.365235,-1.10742 a 0.50005,0.50005 0 0 0 -0.529297,-0.4336 l -3.482422,0.22656 a 0.50005,0.50005 0 0 0 -0.464843,0.53907 c 0.110093,1.33788 0.598075,2.48951 1.455078,3.38086 0.925526,0.96261 2.46357,1.36523 4.544922,1.36523 1.196986,0 2.219534,-0.17746 3.060547,-0.55859 a 0.50005,0.50005 0 0 0 0.002,0 c 0.83262,-0.38351 1.503484,-0.96142 1.974609,-1.70899 0.467596,-0.74197 0.707031,-1.57249 0.707031,-2.45117 0,-0.75121 -0.181802,-1.45526 -0.544922,-2.07617 -0.36833,-0.63949 -0.953777,-1.15593 -1.710937,-1.55274 -0.363396,-0.19447 -1.129679,-0.358 -1.673828,-0.53515 l 3.072265,-0.18555 a 0.50005,0.50005 0 0 0 0.466797,-0.55859 c -0.161687,-1.36937 -0.696857,-2.45621 -1.621093,-3.13281 -0.9142,-0.67917 -2.177398,-0.98047 -3.75586,-0.98047 z m 12.47461,0 c -2.020181,0 -3.681025,0.60638 -4.861329,1.83398 -1.180891,1.22821 -1.755859,2.94243 -1.755859,5.04297 0,1.50277 0.28369,2.7922 0.880859,3.84375 0.584378,1.02905 1.368868,1.81128 2.333985,2.30078 a 0.50005,0.50005 0 0 0 0.002,0 c 0.969049,0.48849 2.153791,0.71875 3.544922,0.71875 1.378998,0 2.567426,-0.2698 3.539062,-0.83398 a 0.50005,0.50005 0 0 0 0.002,0 c 0.962219,-0.56142 1.710986,-1.35808 2.214844,-2.35743 h -0.002 c 0.516008,-1.01784 0.757813,-2.27745 0.757813,-3.77148 0,-2.07282 -0.568829,-3.76466 -1.740235,-4.9707 -1.173538,-1.21441 -2.851186,-1.80664 -4.916015,-1.80664 z m 25.150394,0 c -2.02019,0 -3.68103,0.60638 -4.86133,1.83398 -1.18084,1.22816 -1.75586,2.94234 -1.75586,5.04297 0,1.5029 0.28373,2.7942 0.88086,3.8457 0.58441,1.02911 1.369,1.8094 2.33398,2.29883 a 0.50005,0.50005 0 0 0 0.002,0 c 0.96898,0.48845 2.15378,0.71875 3.54492,0.71875 1.37899,0 2.56735,-0.26976 3.53906,-0.83398 a 0.50005,0.50005 0 0 0 0.002,0 c 0.96222,-0.56142 1.71099,-1.35807 2.21485,-2.35743 h -0.002 c 0.51601,-1.01784 0.75782,-2.27745 0.75782,-3.77148 0,-2.0729 -0.57085,-3.76472 -1.74219,-4.9707 -1.17343,-1.21355 -2.84991,-1.80664 -4.91406,-1.80664 z m -17.330082,0.20898 a 0.50005,0.50005 0 0 0 -0.5,0.5 v 12.32031 a 0.50005,0.50005 0 0 0 0.5,0.5 h 3.675781 a 0.50005,0.50005 0 0 0 0.5,-0.5 v -4.07226 h 1.503907 c 1.555037,0 2.797644,-0.37121 3.636714,-1.19141 0.82801,-0.80334 1.23438,-1.93299 1.23438,-3.27344 0,-1.30027 -0.37003,-2.38877 -1.14063,-3.15234 -0.77612,-0.77413 -1.91858,-1.13086 -3.326168,-1.13086 z m 25.212892,0 a 0.50005,0.50005 0 0 0 -0.5,0.5 v 12.32031 a 0.50005,0.50005 0 0 0 0.5,0.5 h 3.67773 a 0.50005,0.50005 0 0 0 0.5,-0.5 v -4.44336 c 0.14683,0.0251 0.29461,0.042 0.42188,0.13282 0.0626,0.048 0.28365,0.31516 0.51562,0.77148 a 0.50005,0.50005 0 0 0 0.002,0.004 l 1.95507,3.76562 a 0.50005,0.50005 0 0 0 0.44336,0.26953 h 4.13672 a 0.50005,0.50005 0 0 0 0.44727,-0.72265 l -1.76563,-3.56641 c -0.11837,-0.24617 -0.30515,-0.50985 -0.57226,-0.85156 l -0.002,-0.004 c -0.2619,-0.34178 -0.45164,-0.56947 -0.67382,-0.73633 -0.002,-0.002 -0.007,-0.002 -0.01,-0.004 0.0895,-0.0452 0.22378,-0.0664 0.30469,-0.11719 0.55545,-0.34916 1.00428,-0.81383 1.32422,-1.37695 a 0.50005,0.50005 0 0 0 0.002,-0.002 c 0.32787,-0.58363 0.48437,-1.26578 0.48437,-2.01757 0,-0.12749 -0.0847,-0.2125 -0.0937,-0.33594 a 0.50005,0.50005 0 0 0 0.45704,0.45703 h 3.23242 v 8.77734 a 0.50005,0.50005 0 0 0 0.5,0.5 h 3.66015 a 0.50005,0.50005 0 0 0 0.5,-0.5 v -8.77734 h 3.23243 a 0.50005,0.50005 0 0 0 0.5,-0.5 v -3.04297 a 0.50005,0.50005 0 0 0 -0.5,-0.5 h -11.125 a 0.50005,0.50005 0 0 0 -0.5,0.5 v 2.93359 c -0.0701,-0.6443 -0.16221,-1.28239 -0.49805,-1.78125 -0.42027,-0.62994 -1.00216,-1.08647 -1.70117,-1.32226 -0.6885,-0.23224 -1.59308,-0.33008 -2.75391,-0.33008 z m -45.507814,0.79102 c 1.448805,0 2.490696,0.28585 3.160156,0.7832 a 0.50005,0.50005 0 0 0 0.002,0.002 c 0.551168,0.40283 0.882428,1.06416 1.076171,1.92383 l -2.53125,0.1543 c -0.129499,-0.39925 -0.240449,-0.81803 -0.533203,-1.06836 -0.40142,-0.3472 -0.939359,-0.50195 -1.537109,-0.50195 -0.498586,0 -0.951472,0.11353 -1.289063,0.41015 -0.304432,0.26294 -0.496093,0.65596 -0.496093,1.05664 0,0.34479 0.179012,0.67311 0.43164,0.89844 0.346161,0.32286 0.784273,0.42844 1.457032,0.57422 1.575888,0.35347 2.69858,0.71987 3.304687,1.04492 a 0.50005,0.50005 0 0 0 0.0039,0.002 c 0.631679,0.33105 1.051999,0.71969 1.308594,1.16602 a 0.50005,0.50005 0 0 0 0.002,0.004 c 0.272499,0.46595 0.408203,0.97889 0.408203,1.57226 0,0.7012 -0.180022,1.32656 -0.552734,1.91797 -0.368687,0.58502 -0.870674,1.02092 -1.544922,1.33203 -0.667234,0.30238 -1.548782,0.46875 -2.646484,0.46875 -1.947823,0 -3.198405,-0.40575 -3.824219,-1.05664 -0.581099,-0.60438 -0.900445,-1.37235 -1.060547,-2.26758 l 2.53125,-0.16601 c 0.09674,0.40888 0.178205,0.8307 0.396484,1.12109 a 0.50005,0.50005 0 0 0 0,0.002 c 0.466897,0.61741 1.194816,0.94532 2.013672,0.94532 0.602985,0 1.144267,-0.15052 1.539063,-0.50586 0.365481,-0.32993 0.59375,-0.78386 0.59375,-1.26172 0,-0.46003 -0.216263,-0.89856 -0.5625,-1.22266 -0.435954,-0.40808 -1.092596,-0.60522 -2.101563,-0.83594 h -0.002 c -1.559587,-0.36493 -2.632119,-0.85451 -3.208984,-1.3789 a 0.50005,0.50005 0 0 0 -0.002,-0.002 c -0.594181,-0.53591 -0.869141,-1.1616 -0.869141,-2.00585 0,-0.54072 0.143881,-1.03682 0.449219,-1.5254 0.298763,-0.47496 0.740205,-0.85032 1.373047,-1.13671 a 0.50005,0.50005 0 0 0 0.002,-0.002 c 0.611797,-0.27959 1.519472,-0.4414 2.708984,-0.4414 z m 12.47461,0 c 1.878158,0 3.237711,0.50898 4.197265,1.50195 a 0.50005,0.50005 0 0 0 0,0.002 c 0.961686,0.99012 1.458985,2.37974 1.458985,4.27344 0,1.38561 -0.22718,2.48936 -0.648438,3.32031 -0.422636,0.83826 -1.021589,1.47587 -1.826172,1.94532 -0.784395,0.45545 -1.787449,0.69726 -3.037109,0.69726 -1.279844,0 -2.306954,-0.21508 -3.09375,-0.61133 h -0.002 c -0.779587,-0.3957 -1.410605,-1.01579 -1.914063,-1.90234 -0.490923,-0.86447 -0.751953,-1.97274 -0.751953,-3.34961 0,-1.92202 0.502816,-3.33684 1.476563,-4.34961 0.974332,-1.01338 2.314775,-1.52734 4.140625,-1.52734 z m 25.150394,0 c 1.87815,0 3.23765,0.50892 4.19726,1.50195 a 0.50005,0.50005 0 0 0 0,0.002 c 0.96174,0.99018 1.45899,2.37982 1.45899,4.27344 0,1.38561 -0.22718,2.48936 -0.64844,3.32031 -0.42263,0.83825 -1.02159,1.47587 -1.82617,1.94532 -0.78433,0.45541 -1.78746,0.69726 -3.03711,0.69726 -1.27985,0 -2.30688,-0.21504 -3.09375,-0.61133 h -0.002 c -0.77972,-0.39577 -1.41065,-1.01391 -1.91406,-1.90039 -0.49095,-0.86452 -0.75195,-1.97482 -0.75195,-3.35156 0,-1.92193 0.50276,-3.33678 1.47656,-4.34961 0.97434,-1.01338 2.31477,-1.52734 4.14063,-1.52734 z m -16.830082,0.20898 h 5.583984 c 1.24261,0 2.080918,0.30105 2.619138,0.83789 a 0.50005,0.50005 0 0 0 0.002,0.002 c 0.55319,0.5473 0.8457,1.32446 0.8457,2.44336 0,1.14704 -0.31602,1.95936 -0.93164,2.55664 -0.59375,0.5804 -1.542636,0.90821 -2.939454,0.90821 h -2.003907 a 0.50005,0.50005 0 0 0 -0.5,0.5 v 4.07226 h -2.675781 z m 25.212892,0 h 5.60156 c 1.10153,0 1.92627,0.10622 2.4336,0.27734 0.49682,0.16759 0.87713,0.46156 1.18945,0.92969 a 0.50005,0.50005 0 0 0 0.002,0.002 c 0.30396,0.45097 0.46484,1.00634 0.46484,1.71289 0,0.61521 -0.12508,1.11376 -0.35742,1.52734 -0.24011,0.42174 -0.56029,0.75686 -0.98437,1.02344 -0.2438,0.15301 -0.62543,0.3032 -1.13477,0.42383 a 0.50005,0.50005 0 0 0 -0.0488,0.95898 c 0.40989,0.14211 0.69318,0.28734 0.81641,0.38086 a 0.50005,0.50005 0 0 0 0.002,0.002 c 0.0454,0.034 0.24238,0.23483 0.48438,0.55078 a 0.50005,0.50005 0 0 0 0.004,0.004 c 0.24818,0.31728 0.40545,0.56055 0.45898,0.67187 a 0.50005,0.50005 0 0 0 0.004,0.006 l 1.4121,2.84961 h -3.02929 l -1.8125,-3.49218 -0.002,-0.004 c -0.26142,-0.51381 -0.48119,-0.87467 -0.80665,-1.11914 a 0.50005,0.50005 0 0 0 -0.008,-0.004 c -0.34516,-0.24908 -0.76037,-0.38086 -1.18945,-0.38086 h -0.32227 a 0.50005,0.50005 0 0 0 -0.5,0.5 v 4.5 h -2.67773 z m 11.55469,0 h 10.125 v 2.04297 h -3.23243 a 0.50005,0.50005 0 0 0 -0.5,0.5 v 8.77734 h -2.66015 v -8.77734 a 0.50005,0.50005 0 0 0 -0.5,-0.5 h -3.23242 z m -8.37696,1.48828 a 0.50005,0.50005 0 0 0 -0.5,0.5 v 2.50391 a 0.50005,0.50005 0 0 0 0.5,0.5 h 1.54297 c 0.27755,0 0.59069,-0.0663 1.07617,-0.17969 0.35171,-0.0744 0.66906,-0.28542 0.88282,-0.57617 0.21806,-0.2901 0.33398,-0.64883 0.33398,-1.01367 0,-0.49951 -0.17506,-0.97648 -0.5332,-1.29102 -0.41337,-0.36305 -0.97424,-0.44336 -1.69531,-0.44336 z m -25.214841,0.0156 a 0.50005,0.50005 0 0 0 -0.5,0.5 v 2.75 a 0.50005,0.50005 0 0 0 0.5,0.5 h 0.896485 c 0.765243,0 1.379707,-0.11656 1.818359,-0.50391 a 0.50005,0.50005 0 0 0 0.0039,-0.004 c 0.380694,-0.34366 0.59375,-0.83836 0.59375,-1.35546 0,-0.49329 -0.17531,-0.96369 -0.503906,-1.32032 -0.403087,-0.43746 -1.015909,-0.5664 -1.765625,-0.5664 z m -11.503906,0.16797 c -0.860833,0 -1.63126,0.35042 -2.164062,0.99804 -0.567019,0.68921 -0.785157,1.70127 -0.785157,3.01563 0,1.30292 0.215983,2.30783 0.775391,2.99609 a 0.50005,0.50005 0 0 0 0.002,0.002 c 0.535911,0.6514 1.319686,0.99805 2.203125,0.99805 0.899259,0 1.690275,-0.33649 2.214844,-0.98437 0.563691,-0.69621 0.757812,-1.74936 0.757812,-3.17969 0,-1.22287 -0.228449,-2.18887 -0.794922,-2.85742 -0.537161,-0.6462 -1.322143,-0.98828 -2.208984,-0.98828 z m 25.150387,0 c -0.86083,0 -1.63126,0.35041 -2.16406,0.99804 -0.56702,0.68921 -0.78516,1.70127 -0.78515,3.01563 -1e-5,1.30292 0.21392,2.30772 0.77343,2.99609 a 0.50005,0.50005 0 0 0 0.002,0.002 c 0.53601,0.65153 1.32186,0.99805 2.20507,0.99805 0.89926,0 1.69028,-0.33649 2.21485,-0.98437 0.56369,-0.6962 0.75781,-1.74936 0.75781,-3.17969 0,-1.22272 -0.22832,-2.18873 -0.79492,-2.85742 -0.53728,-0.64634 -1.32215,-0.98828 -2.20899,-0.98828 z m -37.980465,0.41211 c 0.43579,0 0.704579,0.0997 0.884766,0.25585 a 0.50005,0.50005 0 0 0 0.002,0.004 c 0.178047,0.15151 0.334642,0.42912 0.414062,0.91016 a 0.50005,0.50005 0 0 0 0.222656,0.17773 c -0.446802,-0.1247 -0.656918,-0.26191 -1.205078,-0.38476 a 0.50005,0.50005 0 0 0 -0.002,-0.002 c -0.616288,-0.13354 -0.994483,-0.33029 -0.992187,-0.32812 a 0.50005,0.50005 0 0 0 -0.01172,-0.0117 c -0.100072,-0.0883 -0.09766,-0.10933 -0.09766,-0.1543 0,-0.13565 0.02394,-0.19396 0.148437,-0.30078 a 0.50005,0.50005 0 0 0 0.0059,-0.006 c 0.093,-0.0822 0.279951,-0.16015 0.630859,-0.16015 z m 50.048825,0.40429 h 1.10743 c 0.6148,0 0.96374,0.13259 1.03515,0.19531 0.12666,0.11125 0.19336,0.24304 0.19336,0.53907 0,0.17234 -0.0392,0.28984 -0.13281,0.41406 a 0.50005,0.50005 0 0 0 -0.004,0.006 c -0.087,0.11955 -0.16004,0.16456 -0.28906,0.19141 a 0.50005,0.50005 0 0 0 -0.0117,0.004 c -0.46715,0.1092 -0.8011,0.1543 -0.85547,0.1543 h -1.04297 z m -25.214841,0.0156 h 0.542969 c 0.618478,0 0.936814,0.14377 1.029297,0.24414 0.166972,0.18121 0.240234,0.36274 0.240234,0.64258 0,0.27664 -0.0742,0.43884 -0.261718,0.60937 -0.132909,0.11673 -0.509296,0.25391 -1.154297,0.25391 h -0.396485 z m -12.003906,0.16797 c 0.653723,0 1.084392,0.19747 1.441406,0.62695 a 0.50005,0.50005 0 0 0 0.002,0.006 c 0.336486,0.3958 0.560547,1.1183 0.560547,2.21289 0,1.32607 -0.236991,2.18252 -0.535156,2.55078 -0.337287,0.41658 -0.763873,0.61328 -1.4375,0.61328 -0.645289,0 -1.071787,-0.19689 -1.429687,-0.63086 v -0.002 c -0.323588,-0.39891 -0.550782,-1.17963 -0.550782,-2.36328 0,-1.19554 0.229486,-1.98125 0.556641,-2.37891 0.361372,-0.43925 0.777484,-0.63476 1.392578,-0.63476 z m 25.150387,0 c 0.65372,0 1.08451,0.19761 1.44141,0.62695 a 0.50005,0.50005 0 0 0 0.002,0.006 c 0.33637,0.39565 0.56055,1.11815 0.56055,2.21289 0,1.32607 -0.23699,2.18252 -0.53516,2.55078 -0.33729,0.41658 -0.76387,0.61328 -1.4375,0.61328 -0.64552,0 -1.07188,-0.197 -1.42968,-0.63086 v -0.002 c -0.32349,-0.39878 -0.55079,-1.17963 -0.55078,-2.36328 0,-1.19554 0.22948,-1.98126 0.55664,-2.37891 0.36136,-0.43925 0.77747,-0.63476 1.39257,-0.63476 z"
         id="path2"
         style="fill:#ffffff" />
      <g
         aria-label="PANEL"
         id="text401"
         style="fill:#ffffff" />
    </g>
  </g>
</svg>
